<svg width="128" height="35" viewBox="0 0 128 35" fill="none" xmlns="http://www.w3.org/2000/svg">
<path d="M0.0500001 -2.38419e-06H8.45C11.1833 -2.38419e-06 13.2333 0.733331 14.6 2.2C15.9667 3.66666 16.65 5.81666 16.65 8.65V26.35C16.65 29.1833 15.9667 31.3333 14.6 32.8C13.2333 34.2667 11.1833 35 8.45 35H0.0500001V-2.38419e-06ZM8.35 30C9.25 30 9.93333 29.7333 10.4 29.2C10.9 28.6667 11.15 27.8 11.15 26.6V8.4C11.15 7.2 10.9 6.33333 10.4 5.8C9.93333 5.26667 9.25 5 8.35 5H5.55V30H8.35ZM20.3625 -2.38419e-06H35.3625V5H25.8625V14.25H33.4125V19.25H25.8625V30H35.3625V35H20.3625V-2.38419e-06ZM37.0766 -2.38419e-06H42.6266L46.2266 27.15H46.3266L49.9266 -2.38419e-06H54.9766L49.6766 35H42.3766L37.0766 -2.38419e-06ZM57.6184 -2.38419e-06H72.1684V5H63.1184V14.75H70.2184V19.75H63.1184V35H57.6184V-2.38419e-06ZM74.8059 -2.38419e-06H80.3059V30H89.3559V35H74.8059V-2.38419e-06ZM91.9934 -2.38419e-06H97.4934V35H91.9934V-2.38419e-06ZM106.463 17.1L100.413 -2.38419e-06H106.213L109.913 11.3H110.013L113.813 -2.38419e-06H119.013L112.963 17.1L119.313 35H113.513L109.513 22.8H109.413L105.313 35H100.113L106.463 17.1Z" fill="black"/>
<path d="M121.925 29.7H127.225V35H121.925V29.7Z" fill="#C50000"/>
</svg>
